<?xml version="1.0" encoding="UTF-8" standalone="no"?>
<!-- Created with Inkscape (http://www.inkscape.org/) -->

<svg
   width="600px"
   height="600px"
   viewBox="0 0 600 600"
   version="1.1"
   id="SVGRoot"
   sodipodi:docname="logoInovareSemNomeColorido.svg"
   inkscape:version="1.1.2 (1:1.1+202202050950+0a00cf5339)"
   xmlns:inkscape="http://www.inkscape.org/namespaces/inkscape"
   xmlns:sodipodi="http://sodipodi.sourceforge.net/DTD/sodipodi-0.dtd"
   xmlns="http://www.w3.org/2000/svg"
   xmlns:svg="http://www.w3.org/2000/svg">
  <sodipodi:namedview
     id="namedview72850"
     pagecolor="#ffffff"
     bordercolor="#666666"
     borderopacity="1.0"
     inkscape:pageshadow="2"
     inkscape:pageopacity="0.0"
     inkscape:pagecheckerboard="0"
     inkscape:document-units="px"
     showgrid="false"
     inkscape:zoom="0.77593294"
     inkscape:cx="396.94152"
     inkscape:cy="355.70084"
     inkscape:window-width="1870"
     inkscape:window-height="1043"
     inkscape:window-x="50"
     inkscape:window-y="0"
     inkscape:window-maximized="1"
     inkscape:current-layer="layer1" />
  <defs
     id="defs72845" />
  <g
     inkscape:label="Camada 1"
     inkscape:groupmode="layer"
     id="layer1">
    <path
       style="fill:none;stroke:#000000;stroke-width:1.80898px;stroke-linecap:butt;stroke-linejoin:miter;stroke-opacity:1"
       d="m 155.43807,558.0293 289.85542,0.0736 12.13501,-26.59225 -146.0479,-363.01793 -133.99742,335.58794 225.76763,0.94728 -102.86404,-253.08959 -100.31469,252.7436 -0.59365,0.58715"
       id="path259" />
    <path
       style="fill:none;stroke:#000000;stroke-width:1.80898px;stroke-linecap:butt;stroke-linejoin:miter;stroke-opacity:1"
       d="m 288.22143,167.07835 -144.06406,363.57055 11.2807,27.3804 v 0"
       id="path261" />
    <path
       style="fill:none;stroke:#000000;stroke-width:1.80898px;stroke-linecap:butt;stroke-linejoin:miter;stroke-opacity:1"
       d="m 144.15737,530.6489 268.96206,-0.70083 -9.96862,-24.91993 v 0"
       id="path263" />
    <path
       style="fill:none;stroke:#000000;stroke-width:1.80898px;stroke-linecap:butt;stroke-linejoin:miter;stroke-opacity:1"
       d="m 300.28677,251.93837 10.27438,-29.50895 134.73234,335.67347"
       id="path265" />
    <path
       style="fill:none;stroke:#000000;stroke-width:1.80898px;stroke-linecap:butt;stroke-linejoin:miter;stroke-opacity:1"
       d="m 288.22143,167.07835 23.15917,1.4144 v 0"
       id="path267" />
    <path
       style="fill:none;stroke:#000000;stroke-width:1.80898px;stroke-linecap:butt;stroke-linejoin:miter;stroke-opacity:1"
       d="m 243.67402,420.25619 c 0,0 9.91894,-16.46964 15.90328,-23.044 5.23231,-5.74817 10.95258,-10.96661 17.19538,-14.01816 7.94468,-3.88336 16.55011,-5.54301 24.93849,-5.04713 9.58838,0.56671 19.34531,3.4148 28.07594,9.11393 11.60733,7.57701 30.85929,32.39341 30.85929,32.39341 l -7.83441,7.59066 c 0,0 -10.83287,16.79849 -17.79079,21.92973 -9.49199,7.0001 -22.88603,10.64174 -31.11321,10.92721 -7.49378,0.26005 -14.99116,-1.79858 -22.29405,-4.2171 -5.39004,-1.78508 -10.94572,-3.59028 -15.73667,-7.54845 -8.5545,-7.06748 -14.8022,-18.72004 -22.20325,-28.0801 z"
       id="path269"
       sodipodi:nodetypes="cssssccsssac" />
    <path
       style="fill:none;stroke:#000000;stroke-width:1.80898px;stroke-linecap:butt;stroke-linejoin:miter;stroke-opacity:1"
       d="M 316.2146,439.10191 Z"
       id="path911" />
    <path
       style="fill:none;stroke:#000000;stroke-width:1.80898px;stroke-linecap:butt;stroke-linejoin:miter;stroke-opacity:1"
       d="m 243.67402,420.25619 c 14.76938,-41.50619 35.17931,-55.98899 58.20196,-54.52423 19.36251,1.23187 38.86932,13.42333 58.77042,53.92228 v 0"
       id="path4502"
       sodipodi:nodetypes="cscc" />
    <path
       style="fill:none;stroke:#000000;stroke-width:1.80898px;stroke-linecap:butt;stroke-linejoin:miter;stroke-opacity:1"
       d="m 257.12299,439.74549 c 5.86202,8.98526 8.48104,27.64625 44.1849,30.03663 19.90117,1.33238 38.33265,-16.24263 51.5041,-42.53722"
       id="path5050"
       sodipodi:nodetypes="csc" />
    <path
       style="fill:none;stroke:#000000;stroke-width:1.80898px;stroke-linecap:butt;stroke-linejoin:miter;stroke-opacity:1"
       d="m 391.57922,368.09634 c 45.34549,-11.50617 44.83154,-46.74753 27.46398,-90.71156 88.67434,-105.48649 124.20683,-182.07825 151.74279,-254.322096 19.1022,54.631155 4.17056,105.258126 -39.62742,154.940416 -0.29782,4.85559 -2.06647,9.49956 -3.46819,14.19635 23.43173,-24.79309 43.05788,-51.72701 61.91747,-79.09204 0.0886,33.17471 13.36803,61.94358 -54.16702,120.11224 l -2.13153,11.03351 c 24.72649,-15.74542 42.10102,-33.13708 62.45937,-51.03454 -3.04116,59.95547 -35.55751,67.57541 -63.12246,89.5044 l -6.86166,8.58015 c 16.90001,-2.27582 38.72457,-14.7077 58.69468,-23.31499 -9.82674,54.96124 -35.38854,42.77345 -59.10294,49.68089 -0.0664,3.3968 -6.52244,12.49575 -9.64599,11.51133 16.86481,4.74831 32.79818,1.11746 48.73806,-2.4549 -2.90402,39.11449 -40.82956,28.65586 -65.59926,36.81936 13.86908,9.64823 26.97187,6.76629 40.41103,9.38459 -4.72551,26.37031 -31.17428,19.88804 -56.20344,15.55252 7.83841,14.32713 17.25404,14.63051 26.11517,19.86423 -14.58409,15.56112 -30.74252,6.45759 -47.04208,-4.85656 -14.73042,3.21027 -26.97942,-4.66402 -36.75151,-23.60313 l -18.63968,19.44336 -0.81846,0.34507"
       id="path5903"
       sodipodi:nodetypes="ccccccccccccccccccccccc" />
    <path
       style="fill:none;stroke:#000000;stroke-width:1.80898px;stroke-linecap:butt;stroke-linejoin:miter;stroke-opacity:1"
       d="m 434.70368,271.43869 c 33.18631,-33.77821 63.95958,-71.31264 93.0964,-111.39428 4.32633,8.84658 3.11789,21.4416 3.01619,15.74895 0.35328,5.24289 -1.60583,9.93092 -3.12589,16.40609 -10.76947,45.8771 -56.05124,63.17711 -86.06663,93.16452 30.40748,-23.46465 63.11475,-40.91601 90.92745,-71.16504 4.49713,6.20163 2.9992,11.31925 2.98727,17.23965 -0.006,3.76242 -1.94254,10.93971 -1.94254,10.93971 -4.81296,27.1049 -57.10971,41.45983 -91.39191,58.4732 31.47341,-6.44573 61.83531,-14.63852 88.88522,-33.94464 1.73571,5.52354 2.72963,12.26268 0.25208,17.40939 l -5.55683,6.98693 c -13.90599,17.48465 -51.60763,19.28977 -82.01418,25.49572 27.9843,-1.04959 60.23262,2.70097 79.52995,-8.12793 2.68419,4.9273 2.62108,11.3522 -1.57279,16.36129 l -5.99723,4.14815 c -22.7956,15.76727 -48.52524,7.71112 -74.24391,6.12181 21.88949,9.49925 43.59098,12.73632 65.2285,13.84186 -1.51301,5.67065 -4.04897,10.53355 -7.84579,14.40079 -16.55376,12.1998 -39.89534,-5.73878 -60.95287,-13.53584 16.83421,12.77901 33.67209,25.53267 52.22242,26.37186 -0.88078,12.12685 -4.11419,11.3293 -7.06196,12.10109 -19.68948,3.39517 -34.67663,-13.98748 -51.45476,-23.45648 12.18537,10.99011 24.32306,26.86227 36.58075,30.4591 1.92425,3.53812 0.40815,6.31711 -6.0529,8.00505 v 0"
       id="path7360"
       sodipodi:nodetypes="cccsccascccscccscccccccccc" />
    <path
       style="fill:none;stroke:#000000;stroke-width:1.80898px;stroke-linecap:butt;stroke-linejoin:miter;stroke-opacity:1"
       d="m 528.14027,179.09202 c 0,0 0,0 0,0 z"
       id="path11618" />
    <path
       style="fill:none;stroke:#000000;stroke-width:1.80898px;stroke-linecap:butt;stroke-linejoin:miter;stroke-opacity:1"
       d="M 209.76858,368.32769 C 164.42313,356.82151 164.93703,321.58025 182.30459,277.61612 93.630276,172.12971 58.097786,95.537955 30.561836,23.294036 11.459647,77.925167 26.391286,128.55215 70.189246,178.23452 c 0.29782,4.85551 2.06647,9.49948 3.46819,14.19627 -23.43172,-24.79309 -43.05787,-51.72693 -61.917458,-79.09204 -0.0886,33.17471 -13.3680341,61.9436 54.167008,120.11225 l 2.13153,11.0335 c -24.72647,-15.74542 -42.101,-33.13709 -62.4593641,-51.03454 3.0411687,59.95546 35.5575241,67.57541 63.1224541,89.5044 l 6.86166,8.58017 c -16.90001,-2.27584 -38.72456,-14.70772 -58.69467,-23.31502 9.82674,54.96123 35.38855,42.77346 59.10293,49.68092 0.0662,3.3968 6.52244,12.49572 9.64599,11.5113 -16.8648,4.74833 -32.79816,1.11749 -48.73805,-2.45489 2.90403,39.11449 40.82955,28.65586 65.599244,36.81938 -13.869074,9.64821 -26.971864,6.76627 -40.411014,9.38457 4.7255,26.37031 31.17427,19.88804 56.203414,15.55253 -7.8384,14.32711 -17.25401,14.6305 -26.115134,19.86424 14.584064,15.5611 30.742494,6.45757 47.042084,-4.8566 14.73042,3.21028 26.97937,-4.66398 36.75151,-23.60308 l 18.63967,19.44331 0.81848,0.34512"
       id="path5903-3"
       sodipodi:nodetypes="ccccccccccccccccccccccc" />
    <path
       style="fill:none;stroke:#000000;stroke-width:1.80898px;stroke-linecap:butt;stroke-linejoin:miter;stroke-opacity:1"
       d="m 166.64411,271.67003 c -33.18631,-33.7782 -63.95956,-71.31262 -93.096374,-111.39428 -4.32633,8.84658 -3.11789,21.4416 -3.01619,15.74894 -0.35328,5.2429 1.60583,9.93094 3.12589,16.4061 10.76947,45.87711 56.051204,63.1771 86.066604,93.16452 -30.40747,-23.46466 -63.114734,-40.91601 -90.927424,-71.16495 -4.49713,6.20154 -2.99921,11.31916 -2.98726,17.23956 0.006,3.76242 1.94254,10.93971 1.94254,10.93971 4.81295,27.10492 57.109664,41.45991 91.391874,58.47319 -31.47341,-6.44572 -61.835284,-14.63851 -88.885194,-33.94462 -1.73571,5.52354 -2.72962,12.26268 -0.25208,17.4094 l 5.55683,6.98693 c 13.906,17.48463 51.607594,19.28974 82.014144,25.49572 -27.98429,-1.0496 -60.232584,2.70097 -79.529914,-8.12795 -2.68419,4.92733 -2.62108,11.35229 1.57279,16.36137 l 5.99723,4.14806 c 22.795594,15.76728 48.525214,7.71115 74.243874,6.12184 -21.88949,9.49923 -43.59095,12.73633 -65.228464,13.84184 1.51302,5.67067 4.048969,10.53363 7.845784,14.40081 16.55378,12.19978 39.89538,-5.73879 60.95291,-13.53586 -16.83422,12.77901 -33.6721,25.53267 -52.22246,26.37186 0.88078,12.12685 4.11419,11.32928 7.06196,12.1011 19.68952,3.39516 34.67665,-13.9875 51.45475,-23.45648 -12.18532,10.99009 -24.32308,26.86226 -36.58071,30.45909 -1.92424,3.53812 -0.40815,6.31711 6.0529,8.00503 v 0"
       id="path7360-6"
       sodipodi:nodetypes="cccsccascccscccscccccccccc" />
    <path
       style="fill:none;stroke:#000000;stroke-width:1.80898px;stroke-linecap:butt;stroke-linejoin:miter;stroke-opacity:1"
       d="m 73.207546,179.32337 c 0,0 0,0 0,0 z"
       id="path11618-1" />
    <path
       style="fill:none;fill-opacity:1;stroke:#000000;stroke-width:0.850633"
       d="m 294.42685,454.11102 c -7.76627,-3.69045 -13.25633,-10.59141 -16.57903,-20.83956 -1.52611,-4.70709 -1.87343,-7.27779 -1.87966,-13.91317 -0.006,-7.0054 0.2984,-9.06044 2.19074,-14.75234 2.63456,-7.92564 7.02709,-14.36424 12.35155,-18.10515 3.37568,-2.37176 4.8001,-2.75161 10.31714,-2.75161 5.56049,0 6.92957,0.37126 10.42873,2.8297 5.3686,3.7715 9.58654,9.97869 12.24998,18.02706 1.87971,5.68031 2.18732,7.76124 2.1808,14.75234 -0.0121,9.92203 -2.06516,17.15239 -7.04098,24.7622 -5.92772,9.06566 -16.76127,13.53455 -24.21927,9.99053 z m 10.46806,-18.0103 c 5.4229,-2.15453 9.08984,-10.04768 9.08984,-19.56606 0,-2.95881 -0.005,-2.96207 -3.45264,-2.28366 -5.35098,1.05277 -6.97747,-2.71653 -4.71052,-10.91682 0.43502,-1.57452 0.0121,-1.77782 -3.67327,-1.75811 -7.55135,0.0409 -11.76077,4.56407 -13.68468,14.70599 -0.73563,3.87813 -0.66492,4.19575 1.70891,7.67343 2.02137,2.96134 2.47629,4.40255 2.47629,7.84449 0,3.99475 0.12175,4.23819 2.31141,4.62696 4.52119,0.80304 7.32514,0.71064 9.93466,-0.32628 z"
       id="path51948-6" />
    <path
       style="fill:#806600;stroke:#000000;stroke-width:1.41936"
       d="m 147.20713,527.66332 c 0.28296,-0.64482 32.32894,-81.53918 71.2133,-179.76528 l 70.69884,-178.5929 h 9.97174 9.97174 l -5.00154,12.8962 c -2.75086,7.09291 -32.82272,82.53502 -66.82637,167.64914 -34.00365,85.1141 -61.7276,154.85344 -61.60876,154.97631 0.49857,0.51545 130.43446,2.05233 176.43932,2.08691 l 49.92368,0.0375 4.5431,10.94224 4.5431,10.94223 H 278.88397 c -72.70521,2e-5 -131.95979,-0.52756 -131.67684,-1.17237 z"
       id="path60528" />
    <path
       style="fill:#aa8800;stroke:#000000;stroke-width:1.41936"
       d="m 151.63809,545.2232 c -2.63631,-6.46233 -4.7933,-12.08976 -4.7933,-12.50541 0,-0.41565 60.31449,-0.75574 134.0322,-0.75574 73.71771,0 134.0322,-0.36082 134.0322,-0.80185 0,-1.43369 -14.28442,-36.98135 -63.62616,-158.33757 -26.67331,-65.60314 -48.49693,-120.07812 -48.49693,-121.05551 0,-2.53959 6.94418,-23.01893 7.81315,-23.04201 0.39869,-0.0109 21.8223,52.56208 47.60802,116.82816 25.7857,64.2661 55.4386,138.12617 65.89533,164.13352 l 19.01221,47.28608 H 299.77311 156.4314 Z"
       id="path60715" />
    <path
       style="fill:#d4aa00;stroke:#000000;stroke-width:1.41936"
       d="m 378.17921,386.43864 c -36.85885,-91.90555 -67.3376,-167.10344 -67.73056,-167.10642 -0.39294,-0.002 -2.90459,6.50129 -5.58145,14.45394 -2.67685,7.95267 -27.54629,71.61302 -55.26541,141.46746 l -50.3984,127.00808 h -9.53267 c -5.24297,0 -9.33936,-0.64397 -9.10309,-1.43105 2.98455,-9.94216 130.67518,-326.56273 131.34904,-325.69191 0.51102,0.66038 33.0685,81.11226 72.34996,178.78197 l 71.42084,177.58128 -5.03854,10.78147 c -2.77121,5.92982 -5.13194,10.88827 -5.24609,11.01882 -0.11413,0.13053 -30.36477,-74.95811 -67.22363,-166.86364 z"
       id="path60791" />
    <path
       style="fill:#00feff;fill-opacity:1;stroke:#000000;stroke-width:1.41936"
       d="m 135.89867,400.07443 c -2.25051,-1.996 -2.02288,-2.35603 3.2978,-5.21603 7.28747,-3.91719 32.48923,-28.19632 31.42856,-30.27795 -0.47218,-0.92667 -4.85004,1.14585 -10.67928,5.0557 -22.70948,15.23195 -24.63473,16.12382 -34.85632,16.14717 -7.56379,0.0173 -9.79816,-0.52319 -10.90898,-2.63884 -1.86536,-3.55274 -1.10551,-4.21223 7.73561,-6.71388 4.15399,-1.17538 10.4474,-3.6313 13.98537,-5.45759 8.17731,-4.22111 28.98615,-19.06826 28.98615,-20.68168 0,-2.33697 -3.73349,-1.17331 -21.09071,6.57357 -21.49529,9.59381 -29.12422,10.97055 -37.01697,6.68017 -3.29275,-1.78988 -6.62,-5.06245 -7.904095,-7.77418 l -2.217609,-4.68311 11.239004,-1.03824 c 22.84251,-2.11013 51.58331,-10.2228 52.87561,-14.92522 0.46865,-1.70527 -0.4646,-1.94301 -4.41147,-1.12378 -10.77066,2.23559 -46.20636,3.0186 -53.25428,1.17675 -9.809754,-2.56363 -22.643274,-10.52844 -24.369784,-15.12451 -1.80323,-4.80034 -0.57918,-9.02238 2.2243,-7.67206 7.13846,3.43827 21.985834,5.22042 48.162604,5.78106 21.61436,0.46293 29.31955,0.15335 29.31955,-1.17809 0,-1.14813 -7.62886,-3.08195 -20.94253,-5.30866 -39.599374,-6.62296 -53.271614,-11.95678 -62.805004,-24.50141 -4.49527,-5.91516 -5.26264,-7.8227 -4.54402,-11.29554 0.47555,-2.29817 1.04878,-4.40185 1.27385,-4.67484 0.22507,-0.27299 4.08405,1.75369 8.5755,4.50372 11.60389,7.10482 38.933274,17.6731 57.969724,22.41688 17.497,4.36017 21.76125,4.86974 21.76125,2.60043 0,-1.55493 -4.67003,-3.82565 -32.86367,-15.97938 -26.09783,-11.2503 -45.290754,-22.90554 -51.779774,-31.4442 -5.25612,-6.91633 -8.17807,-16.76865 -8.12834,-27.40735 0.0408,-8.72854 1.74998,-8.9638 9.4997,-1.30757 3.99142,3.94328 11.45668,10.59703 16.58945,14.78612 11.597134,9.46497 64.886214,47.17148 66.665504,47.17148 3.86723,0 -0.55697,-4.52872 -17.70347,-18.12171 -35.74272,-28.33524 -40.74758,-32.69243 -49.210394,-42.84218 -11.96133,-14.34564 -20.73978,-36.19138 -20.6857,-51.47773 0.0392,-11.0819 1.48441,-10.3768 14.89643,7.26781 26.337814,34.64954 75.302274,91.10522 79.016294,91.10522 3.05654,0 1.01322,-2.9069 -10.84512,-15.42863 -18.53002,-19.56665 -47.37199,-53.94223 -65.092024,-77.58058 -8.70058,-11.60646 -16.21576,-21.10267 -16.7004,-21.10267 -1.43325,0 -3.87246,7.63086 -3.87246,12.11462 v 4.15163 L 64.270886,168.45 c -15.2043,-17.90323 -29.7098,-44.50745 -35.58712,-65.26961 -3.2805,-11.588658 -3.62677,-14.836118 -3.61659,-33.91854 0.008,-15.995468 0.57651,-23.278265 2.34679,-30.091151 1.28456,-4.943547 2.72936,-8.986464 3.21068,-8.984269 0.48132,0.0024 4.64479,9.315238 9.25214,20.695654 29.30066,72.374176 68.730644,138.259276 123.314004,206.050146 l 17.0633,21.19208 -3.12565,9.38597 c -14.02968,42.12957 -7.16897,66.90382 21.89475,79.06278 3.55337,1.48656 6.288,3.53313 6.07694,4.5479 -0.21106,1.01479 -2.45945,7.35284 -4.99644,14.08455 l -4.61268,12.23948 -3.55707,-3.47519 c -1.95638,-1.91135 -6.40522,-6.4113 -9.88629,-9.99989 l -6.32922,-6.52468 -5.25926,8.24444 c -6.64498,10.41669 -16.09452,16.52875 -25.55426,16.52875 -3.62388,0 -7.67669,-0.96479 -9.00624,-2.14399 z"
       id="path60867" />
    <path
       style="fill:#00feff;fill-opacity:1;stroke:#000000;stroke-width:1.41936"
       d="m 443.89716,398.63019 c -6.08311,-3.51819 -11.6172,-9.73732 -16.16739,-18.16865 l -2.00028,-3.70647 -9.9881,10.56587 c -5.49346,5.81122 -10.19892,10.30948 -10.45657,9.99611 -1.85962,-2.26167 -10.79813,-27.18903 -10.03061,-27.97298 0.53229,-0.54368 3.57756,-1.8714 6.76727,-2.95053 3.18971,-1.07912 8.13226,-3.59554 10.98345,-5.59204 19.2513,-13.48048 23.19546,-36.46002 12.17756,-70.94906 l -3.68693,-11.54109 21.37309,-27.53832 c 56.88554,-73.29455 93.17221,-134.96729 120.93906,-205.547714 3.67884,-9.351225 7.05117,-16.29108 7.49405,-15.42189 0.44289,0.869191 1.96834,7.46505 3.3899,14.657472 7.96848,40.316988 -3.26005,78.812222 -35.27547,120.936292 -5.70809,7.51038 -7.13835,8.72478 -7.17859,6.09518 -0.0796,-5.20879 -2.73784,-13.13966 -4.36482,-13.02291 -0.81668,0.0586 -5.54451,5.73907 -10.50628,12.62325 -13.42002,18.61958 -48.21041,60.78014 -66.78759,80.93624 -14.97739,16.25035 -18.12148,20.44583 -15.32211,20.44583 3.48912,0 51.69195,-55.48287 76.05183,-87.53788 8.16695,-10.74684 15.30251,-19.76072 15.85678,-20.03087 0.55429,-0.27015 1.40788,2.09555 1.89688,5.2571 1.03426,6.68694 -1.72973,20.22766 -6.81968,33.40951 -4.40902,11.41839 -20.75717,31.21389 -35.16224,42.57692 -6.025,4.75266 -18.3131,14.43016 -27.30687,21.50557 -8.99378,7.0754 -17.0507,13.88504 -17.90426,15.1325 -2.04104,2.98294 -0.38065,4.8749 2.4181,2.75534 1.20821,-0.915 11.4759,-8.19796 22.81708,-16.18439 29.55372,-20.81161 42.35192,-30.64209 54.56733,-41.91398 5.91201,-5.45537 11.13153,-9.45407 11.59894,-8.88599 0.4674,0.56805 0.78916,4.31457 0.71501,8.32559 -0.45842,24.79727 -10.7755,35.77137 -50.12725,53.31957 -9.92354,4.42523 -23.7287,10.57826 -30.67814,13.67338 -14.757,6.57245 -15.38921,9.8408 -1.31302,6.78794 27.50922,-5.96623 52.63006,-15.22964 69.88969,-25.77212 l 9.14161,-5.58384 v 6.21795 c 0,11.80744 -11.56151,22.4806 -30.48519,28.14279 -8.44187,2.52592 -51.45768,11.01067 -55.82162,11.01067 -0.73129,0 -1.32962,0.77365 -1.32962,1.71919 0,2.87869 63.32618,0.88005 72.17118,-2.27779 3.89853,-1.39185 7.26997,-2.53899 7.49209,-2.54919 0.22212,-0.0109 0.22212,2.24513 0,5.01187 -0.47298,5.89148 -5.02467,10.19668 -16.31086,15.42754 -9.50046,4.40323 -27.26337,5.53725 -48.60728,3.1032 -16.10817,-1.83697 -19.03749,-1.56819 -16.49658,1.51374 2.45872,2.98222 30.86065,10.6255 46.5779,12.53462 8.66018,1.05193 15.74579,2.60921 15.74579,3.46063 0,0.85143 -2.01427,3.85223 -4.47616,6.66847 -8.18144,9.35897 -16.76952,8.74387 -42.96246,-3.07712 -15.78556,-7.1241 -19.57748,-8.26553 -19.57748,-5.89312 0,1.99546 19.175,15.50973 29.39918,20.72013 5.1372,2.618 12.22291,5.17407 15.74602,5.68017 6.64356,0.95437 7.64069,2.52806 4.69638,7.41198 -1.44041,2.3893 -3.11283,2.73304 -10.63236,2.18529 -9.39492,-0.68436 -13.9875,-2.91375 -34.26578,-16.63365 -5.61646,-3.80001 -10.21356,-6.02319 -10.65664,-5.15362 -1.08929,2.13778 21.66186,24.46009 29.94918,29.38468 8.26617,4.91201 7.36858,7.07239 -3.27426,7.88066 -5.8351,0.44314 -8.8146,-0.23678 -13.88286,-3.16803 z"
       id="path66180" />
    <path
       style="fill:#00feff;fill-opacity:1;stroke:#000000;stroke-width:1.41936"
       d="m 504.89083,358.00746 c 0.75461,-1.10286 1.93964,-3.81599 2.63338,-6.02919 l 1.26135,-4.02399 -16.32987,-1.86669 c -8.98143,-1.02668 -19.80955,-2.7742 -24.0625,-3.88341 -7.73051,-2.01617 -7.727,-2.01693 12.88771,-2.76655 17.35801,-0.63119 21.70606,-1.2924 27.48289,-4.17931 5.96393,-2.98041 8.41092,-3.31317 18.68718,-2.54126 7.49322,0.56288 16.07338,0.076 23.42358,-1.3291 6.37941,-1.21955 11.65661,-2.13633 11.72709,-2.0373 0.0705,0.099 -0.38009,2.4617 -1.00129,5.25038 -1.59584,7.1641 -8.80171,15.26575 -16.24492,18.26437 -3.48976,1.40592 -13.82466,3.57547 -22.96645,4.82124 -20.31073,2.76777 -19.158,2.74663 -17.49815,0.32081 z"
       id="path66219" />
    <path
       style="fill:#00feff;fill-opacity:1;stroke:#000000;stroke-width:1.41936"
       d="m 481.2809,312.28779 c 16.99887,-3.35174 34.05974,-9.57761 40.03764,-14.61057 2.96217,-2.49394 9.22729,-5.50434 14.40963,-6.92384 5.04284,-1.3813 16.83595,-6.05906 26.20691,-10.39502 9.37095,-4.33597 17.53028,-7.88358 18.13184,-7.88358 3.47919,0 -2.53871,17.89191 -9.03752,26.86962 -5.51948,7.62482 -14.01087,11.64767 -28.80326,13.64573 -16.1221,2.17766 -15.0566,2.33183 -16.53749,-2.39256 -0.89919,-2.86859 -1.94382,-3.82972 -3.51223,-3.23151 -12.96311,4.94435 -18.257,5.95014 -34.45166,6.54546 l -18.0428,0.66328 z"
       id="path66258" />
    <path
       style="fill:#00feff;fill-opacity:1;stroke:#000000;stroke-width:1.41936"
       d="m 483.92008,284.37662 c 24.88446,-11.39234 37.91299,-19.86442 44.35322,-28.84167 2.87617,-4.00917 5.94835,-8.22292 6.82708,-9.36389 0.87873,-1.14097 6.52723,-5.56187 12.55224,-9.82423 6.025,-4.26236 18.78384,-14.68749 28.35297,-23.16695 9.56912,-8.47947 17.59405,-15.19337 17.83319,-14.91977 1.07841,1.23384 -3.01318,19.6667 -6.35993,28.65184 -5.34175,14.34115 -16.21149,26.5129 -36.02929,40.34497 l -16.04027,11.19549 -1.58333,-6.34218 c -0.87084,-3.48821 -1.82713,-6.63789 -2.12509,-6.99929 -0.29796,-0.36142 -3.64509,1.46265 -7.43806,4.05347 -9.16546,6.26052 -28.06596,15.00764 -42.71137,19.76674 -18.20996,5.91741 -17.49266,4.53815 2.36864,-4.55453 z"
       id="path66297" />
    <path
       style="fill:#00feff;fill-opacity:1;stroke:#000000;stroke-width:1.41936"
       d="m 513.4384,225.25099 c 3.98349,-5.33917 9.27485,-14.65961 11.75856,-20.71209 3.69241,-8.99793 8.11342,-15.42256 24.24559,-35.23376 10.85136,-13.32608 23.96567,-30.20838 29.14292,-37.51624 5.17725,-7.30784 9.67819,-13.6387 10.00209,-14.06859 0.3239,-0.42987 0.35777,8.71471 0.0753,20.3213 -0.5042,20.71583 -0.60467,21.33225 -5.47813,33.6083 -4.21016,10.60523 -7.14455,15.11813 -19.31186,29.70034 -7.89104,9.45723 -17.08854,19.5248 -20.43887,22.3724 l -6.09152,5.17744 v -4.08268 c 0,-2.24549 -0.89891,-6.19112 -1.99757,-8.76807 -1.96896,-4.61824 -2.04013,-4.64512 -4.96797,-1.87634 -14.28527,13.5092 -22.41427,20.78555 -23.22125,20.78555 -0.52799,0 2.29924,-4.36841 6.28274,-9.70756 z"
       id="path66336" />
    <path
       style="fill:#00feff;fill-opacity:1;stroke:#000000;stroke-width:1.41936"
       d="m 507.70071,390.48582 c -1.06323,-0.32171 -5.87783,-1.0388 -10.6991,-1.59354 -6.40026,-0.73643 -8.44907,-1.50003 -7.59178,-2.8295 0.64579,-1.0015 1.51564,-4.01239 1.933,-6.6909 0.75846,-4.8676 0.75552,-4.87043 -5.94032,-5.72226 -6.67562,-0.84926 -22.23013,-7.044 -21.10713,-8.40612 0.32491,-0.39409 4.07331,0.37804 8.32978,1.71585 9.01483,2.83335 16.68664,3.10892 21.73531,0.78072 2.81157,-1.29657 5.39258,-0.97771 12.00504,1.48306 4.63289,1.72409 13.49798,3.58562 19.70019,4.13673 6.20221,0.55112 11.27675,1.54745 11.27675,2.21408 0,2.3805 -5.44395,9.55044 -8.89485,11.71493 -3.51442,2.20432 -17.10575,4.29866 -20.74689,3.19695 z"
       id="path66375" />
    <path
       style="fill:#00feff;fill-opacity:1;stroke:#000000;stroke-width:1.41936"
       d="m 479.98941,411.79404 c -3.54562,-1.54936 -8.08287,-3.85691 -10.08279,-5.12788 -3.22217,-2.04772 -3.4053,-2.54332 -1.60825,-4.35229 3.19018,-3.21134 2.4682,-7.78739 -1.51614,-9.60957 -4.68218,-2.14131 -14.8328,-9.3598 -14.21517,-10.10892 0.26722,-0.32412 4.0008,1.13273 8.29684,3.23745 4.29604,2.10472 10.8448,4.11418 14.55278,4.46549 5.36155,0.50796 7.57545,1.6162 10.81371,5.41319 2.23955,2.62596 7.40661,6.62269 11.48235,8.88163 4.07574,2.25894 7.41043,4.4432 7.41043,4.85392 0,1.74636 -9.32936,5.27225 -13.81289,5.22037 -2.68086,-0.031 -7.77525,-1.32404 -11.32087,-2.87339 z"
       id="path66414" />
    <path
       style="fill:#00feff;fill-opacity:1;stroke:#000000;stroke-width:1.41936"
       d="m 99.426695,411.94921 -4.244269,-2.84673 7.389134,-3.71472 c 4.06403,-2.04311 9.45363,-5.951 11.97689,-8.68424 3.64757,-3.95109 6.17008,-5.18847 12.30891,-6.03797 4.24664,-0.58764 10.85936,-2.81106 14.69493,-4.94094 3.83557,-2.12986 7.22096,-3.57265 7.52308,-3.2062 0.5866,0.71149 -8.27643,7.26097 -14.15172,10.45765 -4.00493,2.17902 -4.87017,8.1869 -1.50777,10.46925 1.57148,1.0667 0.174,2.37259 -6.12166,5.72046 -10.5662,5.61883 -21.94558,6.75541 -27.867525,2.78344 z"
       id="path66453" />
    <path
       style="fill:#00feff;fill-opacity:1;stroke:#000000;stroke-width:1.41936"
       d="m 77.241166,389.30253 c -2.48637,-1.06386 -5.42111,-2.63772 -6.52164,-3.49746 -2.0885,-1.63157 -6.35608,-8.55176 -6.35608,-10.30684 0,-0.55755 5.36451,-1.51572 11.92113,-2.12927 6.55662,-0.61353 15.22722,-2.45862 19.26798,-4.10019 5.554084,-2.25636 8.169044,-2.60552 10.716254,-1.43087 4.88096,2.25086 14.42619,1.90815 23.0902,-0.82903 4.14833,-1.31056 7.78987,-2.08269 8.09232,-1.71585 1.05613,1.28101 -14.49976,7.63152 -20.59735,8.40863 -3.38169,0.43099 -6.45583,1.3867 -6.8314,2.12378 -0.37558,0.73709 -0.13679,3.73903 0.53065,6.67099 1.15027,5.05294 1.02521,5.37652 -2.39904,6.20719 -8.724435,2.11641 -26.558894,2.46193 -30.913024,0.59892 z"
       id="path66492" />
    <path
       style="fill:#00feff;fill-opacity:1;stroke:#000000;stroke-width:1.41936"
       d="m 75.589966,357.53338 c -21.21253,-2.95689 -31.08242,-8.70696 -35.23489,-20.52737 -0.97188,-2.76656 -1.76706,-5.61713 -1.76706,-6.3346 0,-0.71747 5.07454,-0.34876 11.27675,0.81935 6.82821,1.28601 16.21914,1.80768 23.8054,1.3224 10.43335,-0.66741 13.45084,-0.31007 18.0428,2.13666 7.728109,4.11776 23.957994,6.51122 37.687464,5.55784 8.27852,-0.57485 10.57247,-0.38139 7.9352,0.66924 -4.62114,1.84096 -32.75399,6.33034 -39.669224,6.33034 -4.71386,0 -5.05362,0.28134 -4.24761,3.51715 0.48185,1.93443 1.39085,4.1854 2.02001,5.00217 1.94756,2.52829 1.27126,3.99403 -1.75582,3.80538 -1.59486,-0.0993 -9.73671,-1.13374 -18.09302,-2.29856 z"
       id="path66531" />
    <path
       style="fill:#00feff;fill-opacity:1;stroke:#000000;stroke-width:1.41936"
       d="m 66.296596,314.35457 c -14.62362,-2.21103 -24.23994,-4.53271 -27.66025,-6.67801 -7.60584,-4.77057 -16.32921,-19.78646 -18.79036,-32.3446 l -0.81863,-4.17713 18.10741,8.33246 c 9.95908,4.58285 22.3345,9.62123 27.50094,11.19639 5.16643,1.57517 12.00328,4.83437 15.19299,7.24266 7.10846,5.36704 19.343009,9.99446 36.569444,13.83152 l 13.04824,2.9064 -17.39841,-0.68205 c -15.283864,-0.59915 -24.734534,-2.4372 -32.545114,-6.32964 -1.70491,-0.84965 -2.65325,-0.0224 -3.86632,3.37268 -1.59098,4.45277 -1.68586,4.48659 -9.33994,3.32932 z"
       id="path66570" />
    <path
       style="fill:#00feff;fill-opacity:1;stroke:#000000;stroke-width:1.41936"
       d="m 118.54007,288.84299 c -15.28332,-5.22715 -24.702014,-9.57712 -37.774544,-17.44594 -12.26282,-7.38142 -11.92714,-7.44951 -13.69352,2.77783 l -0.77541,4.4896 -15.31177,-10.51995 c -19.25562,-13.22954 -31.05985,-26.06445 -36.5427,-39.73336 -3.92954,-9.79648 -7.8409041,-27.08237 -6.4969211,-28.71251 0.3857757,-0.46792 9.0330811,6.40474 19.2162311,15.27256 10.18315,8.86782 23.31892,19.53546 29.19059,23.70586 6.71286,4.76787 11.38425,9.24434 12.58439,12.0593 4.20387,9.8603 20.7928,21.4759 47.622244,33.34522 7.08825,3.13582 14.04761,6.33181 15.46526,7.10219 l 2.57754,1.40068 -2.57754,-0.006 c -1.41765,-0.004 -7.48538,-1.68425 -13.48385,-3.73582 z"
       id="path66609" />
    <path
       style="fill:#00feff;fill-opacity:1;stroke:#000000;stroke-width:1.41936"
       d="m 83.240486,225.97029 c -6.27452,-5.8033 -12.20282,-11.23907 -13.174,-12.07949 -2.58525,-2.23717 -4.74737,1.10092 -5.613,8.66589 l -0.73443,6.41838 -6.44386,-5.87664 c -19.77156,-18.03116 -34.14954,-37.18482 -40.15073,-53.4869 -3.841027,-10.43406 -5.603534,-26.06575 -4.511895,-40.01606 l 0.84441,-10.7909 10.248825,14.69884 c 5.63686,8.08437 18.78405,25.03128 29.21598,37.65981 15.5922,18.87537 19.6931,24.8059 23.04694,33.32952 2.48581,6.31754 7.37074,14.59991 12.503,21.19876 4.63276,5.95662 7.9178,10.83022 7.30009,10.83022 -0.61771,0 -6.25681,-4.74814 -12.53133,-10.55143 z"
       id="path66648" />
    <path
       style="fill:#008080;fill-opacity:1;stroke:#000000;stroke-width:1.41936"
       d="m 290.42146,449.69453 c -6.00221,-4.94048 -7.63632,-7.25906 -10.87564,-15.431 -5.52661,-13.94219 -1.38548,-34.80403 8.77452,-44.20344 3.85483,-3.56625 5.88351,-4.25502 12.5326,-4.25502 6.64965,0 8.67767,0.68867 12.53391,4.25623 8.59326,7.94996 13.20967,25.92475 10.17216,39.60704 -0.77221,3.47838 -3.55202,9.3681 -6.17735,13.08826 -8.22187,11.65059 -18.13537,14.20173 -26.9602,6.93793 z M 309.3752,433.7799 c 3.29475,-3.57066 4.17238,-5.90828 4.695,-12.50541 l 0.64278,-8.11384 h -4.03029 c -4.14413,0 -4.47913,-0.67553 -4.06971,-8.20667 0.21717,-3.99476 -0.11743,-4.29874 -4.73176,-4.29874 -5.80174,0 -9.94094,3.07833 -12.63458,9.39632 -2.44008,5.72329 -2.45208,11.04665 -0.0336,14.92494 1.04069,1.66888 1.91061,4.47636 1.93315,6.23884 0.0629,4.91537 2.60217,6.95613 8.65542,6.95613 4.23086,0 6.46853,-1.02646 9.57361,-4.39157 z"
       id="path66687" />
    <path
       style="fill:#806600;fill-opacity:1;stroke:#000000;stroke-width:0.709679"
       d="m 291.45843,467.10442 c -11.07249,-2.26252 -18.10512,-6.00465 -23.91362,-12.72469 -2.05922,-2.38237 -3.74404,-4.63277 -3.74404,-5.00088 0,-0.36812 1.52236,0.36634 3.38302,1.63213 3.89922,2.6526 15.57466,7.05372 23.99439,9.04483 11.71041,2.76929 27.09318,0.31082 38.67838,-6.18156 5.94012,-3.32886 6.41307,-3.43043 3.86005,-0.82897 -13.02408,13.27121 -25.61461,17.46003 -42.25818,14.05914 z"
       id="path70884" />
    <path
       style="fill:#806600;fill-opacity:1;stroke:#000000;stroke-width:0.709679"
       d="m 291.18716,466.27786 c -9.30668,-2.11336 -16.40897,-5.60437 -20.91101,-10.27845 -1.46888,-1.52501 -2.54876,-2.92064 -2.39974,-3.10139 0.14903,-0.18076 2.19261,0.54866 4.54128,1.62093 2.34868,1.07227 7.9676,3.09987 12.48648,4.50579 7.22033,2.24639 9.23146,2.55589 16.59316,2.55358 8.97922,-0.002 15.40126,-1.26479 23.63879,-4.64515 2.55647,-1.04906 4.74137,-1.7943 4.85534,-1.65606 0.75434,0.91494 -10.7927,8.31508 -15.92861,10.20815 -5.01806,1.84963 -16.47298,2.24653 -22.87569,0.7926 z"
       id="path70923" />
    <path
       style="fill:#806600;fill-opacity:1;stroke:#000000;stroke-width:0.709679"
       d="m 294.0341,465.89243 c -5.138,-0.72876 -11.32411,-2.73186 -15.92695,-5.15725 -3.45066,-1.81828 -7.48414,-4.91587 -7.06426,-5.42515 0.12545,-0.15215 4.27427,1.17411 9.2196,2.94724 8.54706,3.06451 9.50114,3.24022 19.30168,3.55459 10.32305,0.33113 11.41032,0.18335 24.16446,-3.28452 0.88603,-0.24093 -1.03129,1.14538 -4.26072,3.08067 -5.00492,2.99928 -6.7647,3.63279 -11.92113,4.29153 -6.70357,0.85638 -7.42746,0.85599 -13.51268,-0.007 z"
       id="path70962" />
    <path
       style="fill:#806600;fill-opacity:1;stroke:#000000;stroke-width:0.709679"
       d="m 293.8185,465.05281 c -7.11458,-1.25856 -18.43813,-5.62473 -17.50932,-6.75131 0.16737,-0.203 3.29341,0.59017 6.94676,1.76261 5.80228,1.86207 7.94653,2.14466 16.95262,2.23415 5.67059,0.0564 12.05001,-0.15579 14.17648,-0.47143 l 3.86631,-0.57387 -2.7598,1.52971 c -2.77946,1.54061 -11.37405,3.21664 -15.58828,3.03987 -1.24974,-0.0524 -3.98789,-0.39879 -6.08477,-0.76973 z"
       id="path71001" />
    <path
       style="fill:#806600;fill-opacity:1;stroke:#000000;stroke-width:0.709679"
       d="m 345.63774,400.14691 c -9.90887,-11.20847 -18.33441,-17.15403 -29.40215,-20.74793 -5.64404,-1.83272 -7.56002,-2.06751 -16.99361,-2.08242 -9.0214,-0.0143 -11.41344,0.24537 -15.78745,1.71357 -10.29803,3.4567 -18.03974,9.1412 -26.61554,19.54296 -5.52334,6.69938 -5.59874,5.74664 -0.25783,-3.25805 12.05107,-20.31798 28.23708,-29.7937 47.4738,-27.79243 15.64187,1.62729 31.14103,12.75741 42.80344,30.73762 5.44267,8.39109 5.05682,8.98748 -1.22066,1.88668 z"
       id="path71040" />
    <path
       style="fill:#806600;fill-opacity:1;stroke:#000000;stroke-width:0.709679"
       d="m 343.0602,396.23601 c -8.04463,-8.56842 -18.10289,-14.99092 -28.03078,-17.89849 -7.33838,-2.14919 -24.47324,-2.16056 -31.3709,-0.0209 -8.7683,2.72004 -15.58169,7.16681 -23.34616,15.23693 -4.58079,4.76111 -4.50359,3.84146 0.23649,-2.81719 7.2099,-10.12815 14.45068,-16.20306 23.69158,-19.87691 5.17953,-2.0592 6.44803,-2.2494 15.00155,-2.2494 8.00037,0 10.03437,0.26311 14.14873,1.83019 8.73494,3.32699 16.15744,8.50269 23.9584,16.70616 3.64859,3.83684 9.27339,11.41464 8.84186,11.91186 -0.12707,0.14642 -1.53592,-1.12363 -3.13077,-2.82233 z"
       id="path71079" />
    <path
       style="fill:#806600;fill-opacity:1;stroke:#000000;stroke-width:0.709679"
       d="m 335.97196,388.83834 c -3.34867,-2.92559 -10.6839,-7.30866 -15.69585,-9.37886 -6.55012,-2.70553 -14.21227,-3.68635 -24.90045,-3.18745 -12.84675,0.59964 -19.88295,3.19809 -29.00442,10.71124 -5.35209,4.4084 -4.61287,2.36212 1.34346,-3.71891 5.37739,-5.48998 11.02914,-9.31622 17.62188,-11.93001 3.8545,-1.52818 5.78106,-1.76368 14.19901,-1.73571 8.787,0.0292 10.24132,0.23562 14.87197,2.11091 2.82291,1.1432 6.99802,3.31635 9.27803,4.82921 6.31595,4.19083 17.15163,14.44151 15.12488,14.30831 -0.32074,-0.0211 -1.59807,-0.92501 -2.83851,-2.00873 z"
       id="path71118" />
    <path
       style="fill:#806600;fill-opacity:1;stroke:#000000;stroke-width:0.709679"
       d="m 326.41479,381.78082 c -9.59412,-5.51521 -22.0387,-7.55105 -35.74637,-5.84782 -7.76905,0.96534 -12.77806,2.4988 -17.42704,5.33512 -1.71869,1.04856 -3.26143,1.74089 -3.4283,1.53848 -0.91751,-1.11286 10.85744,-8.95155 16.49705,-10.98224 5.52642,-1.98993 21.12056,-1.76215 26.87936,0.39263 5.07634,1.89942 10.52455,5.09738 15.47167,9.08146 5.35455,4.3122 4.67117,4.45895 -2.24637,0.48237 z"
       id="path71157" />
    <path
       style="fill:#806600;fill-opacity:1;stroke:#000000;stroke-width:0.709679"
       d="m 318.46904,377.57289 c -5.41129,-2.12468 -15.92308,-3.385 -23.17799,-2.77894 -5.65249,0.4722 -7.7807,0.80498 -15.38064,2.40501 -2.22173,0.46774 -2.20997,0.44506 0.78868,-1.52147 4.82027,-3.16115 9.66187,-4.3318 17.91554,-4.3318 8.72184,0 13.14056,0.85294 18.75571,3.62038 7.52341,3.70794 8.24132,5.41129 1.0987,2.60682 z"
       id="path71196" />
    <path
       style="fill:#ffffff;fill-opacity:1;stroke:#000000;stroke-width:0.709679"
       d="m 295.05347,458.01791 c -6.79468,-1.1863 -19.18645,-5.36966 -23.84227,-8.04896 -6.21942,-3.57911 -10.12959,-7.70471 -18.65181,-19.67943 l -7.32313,-10.28987 5.32647,-8.10903 c 13.4541,-20.48259 25.3268,-29.49558 42.1157,-31.97156 10.8148,-1.59493 24.44765,1.4556 34.84673,7.79742 6.40382,3.90533 13.13065,10.36889 23.10077,22.19665 l 7.88792,9.3576 -4.98819,5.9587 c -2.7435,3.27729 -7.74598,9.46438 -11.11662,13.7491 -6.82069,8.67041 -10.24802,11.30689 -19.68208,15.14057 -10.39663,4.22483 -18.9246,5.42631 -27.67349,3.89881 z m 15.5873,-5.03444 c 6.81118,-4.04194 13.11909,-14.07331 14.96606,-23.80026 0.36731,-1.93444 0.66881,-6.68258 0.67,-10.55144 0.004,-14.5955 -6.56007,-28.16924 -16.27711,-33.65668 -2.79116,-1.57624 -4.35737,-1.89159 -9.42662,-1.89795 -7.02618,-0.008 -9.59819,1.13112 -14.59926,6.47053 -11.97061,12.78048 -14.22065,36.51419 -5.00098,52.75102 7.24789,12.7643 19.01952,17.00381 29.66791,10.68478 z"
       id="path71235" />
    <path
       style="fill:#ffffff;fill-opacity:1;stroke:#000000;stroke-width:0.709679"
       d="m 228.84285,502.84815 c -14.44229,-0.11729 -26.25926,-0.47303 -26.25993,-0.79062 -0.003,-1.44963 97.62079,-246.30728 97.99736,-245.79446 0.23422,0.31898 22.83754,55.79915 50.2296,123.28929 27.39205,67.49014 49.92014,122.97313 50.06241,123.29554 0.23414,0.53061 -106.68166,0.53077 -172.02944,2.5e-4 z m 85.25251,-33.42337 c 4.43362,-1.39347 11.55875,-5.49198 16.05705,-9.23629 4.86241,-4.0474 12.82616,-13.81444 17.81995,-21.85508 2.61449,-4.20968 4.75362,-7.96801 4.75362,-8.35187 0,-0.38385 2.15847,-2.83721 4.79659,-5.45188 l 4.79659,-4.75395 -4.37406,-7.99706 c -14.16101,-25.89047 -27.41546,-39.41092 -44.42568,-45.31728 -7.22565,-2.50891 -21.49925,-2.50383 -28.65325,0.01 -11.72047,4.11879 -21.41457,12.70769 -29.76071,26.36779 -3.96675,6.49238 -8.58888,16.09568 -10.98357,22.82034 l -1.72491,4.84382 6.45937,9.22477 c 3.55266,5.07362 8.51354,12.97583 11.02419,17.56046 6.74265,12.31256 12.96276,17.58983 24.72671,20.97864 11.37554,3.27693 21.48229,3.67361 29.48811,1.15739 z"
       id="path71311" />
    <path
       style="fill:#000000;fill-opacity:1;stroke:#000000;stroke-width:0.709679"
       d="m 295.29143,435.66668 c -1.54075,-0.28775 -1.72111,-0.69549 -1.97952,-4.47513 -0.21155,-3.09408 -0.80851,-5.02309 -2.33221,-7.53615 -2.29784,-3.78986 -2.46673,-5.3412 -1.09488,-10.05733 2.11101,-7.25716 6.14847,-10.93801 12.03469,-10.97169 l 2.99973,-0.0171 -0.35153,4.70217 c -0.47297,6.32656 0.56586,7.80325 5.48952,7.80325 h 3.52726 l -0.43057,4.10333 c -0.4774,4.54961 -2.91884,11.31811 -4.84525,13.43267 -2.61646,2.87203 -7.60265,4.02731 -13.01724,3.01605 z"
       id="path72085" />
    <path
       style="fill:#00ffff;fill-opacity:1;stroke:#000000;stroke-width:0.709679"
       d="m 295.88835,451.52852 c -3.42709,-1.4841 -8.5372,-5.62944 -10.80986,-8.76897 -2.99755,-4.14095 -5.72611,-11.37334 -6.58635,-17.45799 -1.91455,-13.54203 4.33431,-30.90898 13.10892,-36.43258 2.44322,-1.538 9.92539,-2.35674 14.28716,-1.56339 8.1091,1.47496 15.37018,13.19328 17.24199,27.82606 1.40029,10.94672 -1.30629,20.19973 -8.47459,28.97219 -6.2087,7.59809 -12.56238,10.11172 -18.76727,7.42468 z m 10.11968,-13.67184 c 2.94284,-1.65874 7.03851,-6.54878 7.9513,-9.4935 0.33969,-1.09584 0.80674,-4.43713 1.03791,-7.4251 0.23116,-2.98796 0.55249,-6.20717 0.71406,-7.1538 0.27485,-1.61031 0.0341,-1.73612 -3.73818,-1.95396 l -4.03194,-0.23285 -0.18394,-5.08031 c -0.21752,-6.00792 -0.98629,-7.03627 -5.2554,-7.02994 -7.04935,0.0109 -12.44966,4.49879 -14.89377,12.37859 -1.65172,5.32515 -1.38513,9.25837 0.96565,14.24659 0.89724,1.90389 1.63483,4.27609 1.6391,5.27156 0.0148,3.46291 1.74888,6.07642 4.84065,7.2958 2.67313,1.05425 8.38534,0.62507 10.95456,-0.82308 z"
       id="path72198" />
  </g>
</svg>
