<?xml version="1.0" encoding="UTF-8" standalone="no"?>
<!-- Created with Inkscape (http://www.inkscape.org/) -->

<svg
   width="600px"
   height="600px"
   viewBox="0 0 600 600"
   version="1.1"
   id="SVGRoot"
   sodipodi:docname="logoSemNomeInovare.svg"
   inkscape:version="1.1.2 (1:1.1+202202050950+0a00cf5339)"
   xmlns:inkscape="http://www.inkscape.org/namespaces/inkscape"
   xmlns:sodipodi="http://sodipodi.sourceforge.net/DTD/sodipodi-0.dtd"
   xmlns="http://www.w3.org/2000/svg"
   xmlns:svg="http://www.w3.org/2000/svg">
  <sodipodi:namedview
     id="namedview72491"
     pagecolor="#ffffff"
     bordercolor="#666666"
     borderopacity="1.0"
     inkscape:pageshadow="2"
     inkscape:pageopacity="0.0"
     inkscape:pagecheckerboard="0"
     inkscape:document-units="px"
     showgrid="false"
     inkscape:zoom="0.77593294"
     inkscape:cx="396.94152"
     inkscape:cy="149.49746"
     inkscape:window-width="1870"
     inkscape:window-height="1043"
     inkscape:window-x="50"
     inkscape:window-y="0"
     inkscape:window-maximized="1"
     inkscape:current-layer="layer1" />
  <defs
     id="defs72486" />
  <g
     inkscape:label="Camada 1"
     inkscape:groupmode="layer"
     id="layer1">
    <path
       style="fill:none;stroke:#000000;stroke-width:1.74096px;stroke-linecap:butt;stroke-linejoin:miter;stroke-opacity:1"
       d="m 154.55675,540.86126 291.48347,0.0678 12.20317,-24.4924 -146.86821,-334.35221 -134.75005,309.08825 227.0357,0.87249 -103.44179,-233.1044 -100.87814,232.78573 -0.59698,0.54079"
       id="path259" />
    <path
       style="fill:none;stroke:#000000;stroke-width:1.74096px;stroke-linecap:butt;stroke-linejoin:miter;stroke-opacity:1"
       d="m 288.08594,180.78172 -144.87324,334.86124 11.34405,25.2183 v 0"
       id="path261" />
    <path
       style="fill:none;stroke:#000000;stroke-width:1.74096px;stroke-linecap:butt;stroke-linejoin:miter;stroke-opacity:1"
       d="m 143.2127,515.64296 270.47275,-0.64549 -10.02462,-22.95213 v 0"
       id="path263" />
    <path
       style="fill:none;stroke:#000000;stroke-width:1.74096px;stroke-linecap:butt;stroke-linejoin:miter;stroke-opacity:1"
       d="M 300.21904,258.94078 310.55113,231.762 446.04022,540.92905"
       id="path265" />
    <path
       style="fill:none;stroke:#000000;stroke-width:1.74096px;stroke-linecap:butt;stroke-linejoin:miter;stroke-opacity:1"
       d="m 288.08594,180.78172 23.28924,1.30271 v 0"
       id="path267" />
    <path
       style="fill:none;stroke:#000000;stroke-width:1.74096px;stroke-linecap:butt;stroke-linejoin:miter;stroke-opacity:1"
       d="m 243.28831,413.9674 c 0,0 9.97463,-15.16912 15.99259,-21.22433 5.26172,-5.29427 11.01411,-10.10064 17.29196,-12.91122 7.98932,-3.57672 16.64309,-5.10531 25.07858,-4.64858 9.64222,0.52195 19.45397,3.14515 28.23362,8.39424 11.67254,6.9787 31.03264,29.83547 31.03264,29.83547 l -7.87843,6.99128 c 0,0 -10.89371,15.47196 -17.89072,20.19804 -9.54529,6.44734 -23.01458,9.8014 -31.28797,10.06434 -7.53585,0.23952 -15.07534,-1.65655 -22.41926,-3.8841 -5.4203,-1.64412 -11.00721,-3.30676 -15.82507,-6.95241 -8.6025,-6.50937 -14.88531,-17.24178 -22.32794,-25.86273 z"
       id="path269"
       sodipodi:nodetypes="cssssccsssac" />
    <path
       style="fill:none;stroke:#000000;stroke-width:1.74096px;stroke-linecap:butt;stroke-linejoin:miter;stroke-opacity:1"
       d="M 316.23633,431.32496 Z"
       id="path911" />
    <path
       style="fill:none;stroke:#000000;stroke-width:1.74096px;stroke-linecap:butt;stroke-linejoin:miter;stroke-opacity:1"
       d="m 243.28829,413.9674 c 14.85238,-38.22866 35.37692,-51.56783 58.52889,-50.21872 19.47125,1.13459 39.08761,12.36335 59.10052,49.6643 v 0"
       id="path4502"
       sodipodi:nodetypes="cscc" />
    <path
       style="fill:none;stroke:#000000;stroke-width:1.74096px;stroke-linecap:butt;stroke-linejoin:miter;stroke-opacity:1"
       d="m 256.81283,431.91773 c 5.89492,8.27575 8.52865,25.46317 44.43307,27.6648 20.01294,1.22716 38.54794,-14.96004 51.79337,-39.17827"
       id="path5050"
       sodipodi:nodetypes="csc" />
    <path
       style="fill:none;stroke:#000000;stroke-width:1.74096px;stroke-linecap:butt;stroke-linejoin:miter;stroke-opacity:1"
       d="m 392.02423,365.92634 c 45.6002,-10.59758 45.08335,-43.05611 27.61826,-83.54853 89.1724,-97.15675 124.90446,-167.70045 152.59508,-234.239551 19.20948,50.317169 4.19397,96.946391 -39.84999,142.705541 -0.2995,4.47217 -2.07808,8.74943 -3.48768,13.07535 23.56333,-22.83532 43.29972,-47.64241 62.26523,-72.84658 0.0892,30.55508 13.44313,57.05223 -54.47125,110.62761 l -2.14349,10.16226 c 24.86535,-14.50209 42.33747,-30.52045 62.81018,-47.00462 -3.05826,55.2211 -35.75725,62.23934 -63.47702,82.4367 l -6.90018,7.90262 c 16.99493,-2.0961 38.94208,-13.5463 59.02435,-21.47393 -9.88194,50.62123 -35.58733,39.39586 -59.43492,45.75785 -0.0666,3.12857 -6.55908,11.50902 -9.70016,10.60234 16.95952,4.37336 32.9824,1.02922 49.01182,-2.26107 -2.92035,36.02583 -41.0589,26.39308 -65.96771,33.91194 13.94696,8.88637 27.12336,6.232 40.63798,8.64354 -4.75204,24.28799 -31.34936,18.31756 -56.5191,14.32442 7.88244,13.19578 17.35094,13.47521 26.26183,18.29566 -14.66599,14.33232 -30.91517,5.94766 -47.30629,-4.47308 -14.81315,2.95677 -27.13095,-4.29572 -36.95792,-21.7393 l -18.74437,17.908 -0.82308,0.31784"
       id="path5903"
       sodipodi:nodetypes="ccccccccccccccccccccccc" />
    <path
       style="fill:none;stroke:#000000;stroke-width:1.74096px;stroke-linecap:butt;stroke-linejoin:miter;stroke-opacity:1"
       d="m 435.39092,276.90126 c 33.37272,-31.11092 64.31882,-65.68144 93.6193,-102.59804 4.35063,8.148 3.1354,19.74846 3.03313,14.50533 0.35527,4.82889 -1.61486,9.14672 -3.14345,15.1106 -10.82997,42.25441 -56.36606,58.18832 -86.55004,85.80778 30.57825,-21.61178 63.46924,-37.68508 91.43817,-65.5455 4.52238,5.71192 3.01605,10.42543 3.00403,15.87831 -0.006,3.46532 -1.95346,10.07588 -1.95346,10.07588 -4.83999,24.96455 -57.43045,38.18593 -91.9052,53.85584 31.65017,-5.93674 62.18262,-13.48258 89.38444,-31.2642 1.74548,5.08738 2.74497,11.29437 0.25352,16.03468 l -5.58805,6.4352 c -13.98411,16.10398 -51.89749,17.76655 -82.47483,23.48245 28.14147,-0.9667 60.57091,2.48769 79.97665,-7.48611 2.69927,4.53822 2.63579,10.45576 -1.58164,15.06933 l -6.0309,3.82059 c -22.92364,14.5222 -48.7978,7.10222 -74.66092,5.63841 22.01244,8.74913 43.83583,11.73059 65.59487,12.74884 -1.52152,5.22286 -4.07172,9.70175 -7.88985,13.26362 -16.64677,11.23646 -40.11944,-5.28562 -61.29525,-12.46698 16.92878,11.76992 33.86124,23.51649 52.51575,24.28941 -0.88572,11.16926 -4.13729,10.43467 -7.10162,11.14553 -19.80008,3.12707 -34.87139,-12.88298 -51.74377,-21.60425 12.2538,10.12226 24.45968,24.7411 36.78622,28.05391 1.93505,3.25873 0.41044,5.81828 -6.08691,7.37292 v 0"
       id="path7360"
       sodipodi:nodetypes="cccsccascccscccscccccccccc" />
    <path
       style="fill:none;stroke:#000000;stroke-width:1.74096px;stroke-linecap:butt;stroke-linejoin:miter;stroke-opacity:1"
       d="m 529.35232,191.84673 c 0,0 0,0 0,0 z"
       id="path11618" />
    <path
       style="fill:none;stroke:#000000;stroke-width:1.74096px;stroke-linecap:butt;stroke-linejoin:miter;stroke-opacity:1"
       d="M 209.19245,366.13941 C 163.59225,355.54184 164.10909,323.08337 181.57419,282.59088 92.401798,185.4342 56.669724,114.89051 28.979113,48.351349 9.7696398,98.668518 24.785129,145.29772 68.829091,191.05694 c 0.299507,4.4721 2.078079,8.74936 3.487668,13.07527 C 48.753437,181.2969 29.01706,156.48989 10.051533,131.28566 c -0.089128,30.55507 -13.4431124,57.05221 54.471253,110.6276 l 2.143495,10.16225 C 41.800931,237.57341 24.328813,221.55509 3.8561127,205.0709 6.9143543,260.29199 39.613359,267.31022 67.333113,287.50759 l 6.900184,7.90262 C 57.238363,293.3141 35.291236,281.8639 15.208965,273.93627 c 9.881937,50.62124 35.587309,39.39587 59.434898,45.75786 0.06662,3.12857 6.559081,11.50902 9.700169,10.60234 -16.959527,4.37335 -32.982388,1.02922 -49.011807,-2.26105 2.920353,36.02582 41.058879,26.39305 65.967705,33.91195 -13.946981,8.88633 -27.123364,6.23197 -40.637993,8.64351 4.752036,24.28798 31.349372,18.31758 56.519123,14.32443 -7.88245,13.19577 -17.350956,13.4752 -26.261856,18.29564 14.665996,14.33235 30.915196,5.94767 47.306306,-4.47307 14.81316,2.95677 27.13095,-4.29571 36.95792,-21.73929 l 18.74438,17.90799 0.82307,0.31785"
       id="path5903-3"
       sodipodi:nodetypes="ccccccccccccccccccccccc" />
    <path
       style="fill:none;stroke:#000000;stroke-width:1.74096px;stroke-linecap:butt;stroke-linejoin:miter;stroke-opacity:1"
       d="m 165.82576,277.11434 c -33.37272,-31.11093 -64.31884,-65.68146 -93.619315,-102.59806 -4.350626,8.14802 -3.1354,19.74847 -3.033131,14.50534 -0.355249,4.82889 1.614872,9.14674 3.143445,15.11059 10.829978,42.25443 56.366081,58.18833 86.550061,85.80779 -30.57826,-21.61177 -63.469261,-37.68509 -91.438176,-65.54541 -4.522388,5.71182 -3.016051,10.42533 -3.004035,15.87823 0.0061,3.46532 1.953452,10.07587 1.953452,10.07587 4.839992,24.96456 57.430469,38.18603 91.905219,53.85585 -31.65017,-5.93674 -62.182629,-13.48259 -89.384452,-31.2642 -1.745477,5.08739 -2.744957,11.29438 -0.253513,16.03469 l 5.588058,6.43518 c 13.9841,16.10398 51.897487,17.76655 82.474827,23.48246 -28.14147,-0.96672 -60.570925,2.48769 -79.976662,-7.48611 -2.699265,4.53824 -2.635796,10.45583 1.58164,15.0694 l 6.0309,3.82051 c 22.923642,14.52221 48.797812,7.10223 74.660942,5.6384 -22.01246,8.74914 -43.83583,11.73061 -65.594875,12.74885 1.521501,5.22287 4.071698,9.70183 7.889855,13.26365 16.64675,11.23642 40.11942,-5.28562 61.29523,-12.46701 -16.92877,11.76992 -33.86122,23.51649 -52.51575,24.28941 0.88572,11.16926 4.13731,10.43468 7.10164,11.14554 19.80006,3.12706 34.87139,-12.88298 51.74377,-21.60423 -12.25381,10.12225 -24.4597,24.74108 -36.78622,28.05388 -1.93507,3.25872 -0.41044,5.81828 6.08689,7.37292 v 0"
       id="path7360-6"
       sodipodi:nodetypes="cccsccascccscccscccccccccc" />
    <path
       style="fill:none;stroke:#000000;stroke-width:1.74096px;stroke-linecap:butt;stroke-linejoin:miter;stroke-opacity:1"
       d="m 71.864352,192.05982 c 0,0 0,0 0,0 z"
       id="path11618-1" />
    <path
       style="fill:none;fill-opacity:1;stroke:#000000;stroke-width:0.818645"
       d="m 294.32621,445.14889 c -7.8099,-3.39904 -13.33079,-9.75506 -16.67216,-19.19398 -1.53467,-4.33539 -1.88396,-6.70309 -1.89023,-12.81451 -0.006,-6.45221 0.30007,-8.34498 2.20306,-13.58743 2.64936,-7.29978 7.06655,-13.22996 12.42093,-16.67547 3.39464,-2.18446 4.82704,-2.53432 10.37509,-2.53432 5.59172,0 6.96849,0.34194 10.4873,2.60624 5.39875,3.47369 9.64039,9.19073 12.31878,16.60355 1.89028,5.23178 2.19959,7.14839 2.19305,13.58743 -0.0122,9.13852 -2.07676,15.79795 -7.08052,22.80685 -5.96101,8.3498 -16.85543,12.4658 -24.3553,9.20164 z m 10.52685,-16.58812 c 5.45336,-1.9844 9.1409,-9.25428 9.1409,-18.02103 0,-2.72517 -0.005,-2.7282 -3.47203,-2.10335 -5.38105,0.96965 -7.01666,-2.502 -4.73698,-10.05477 0.43745,-1.45018 0.0122,-1.63741 -3.69393,-1.61926 -7.59374,0.0376 -11.82681,4.20367 -13.76152,13.54472 -0.73978,3.5719 -0.66866,3.86444 1.71851,7.0675 2.03272,2.72751 2.49018,4.05491 2.49018,7.22505 0,3.67931 0.12244,3.90354 2.32442,4.2616 4.54657,0.73963 7.36628,0.65452 9.99045,-0.30053 z"
       id="path51948-6" />
  </g>
</svg>
